<svg width="1177" height="883" viewBox="0 0 1177 883" fill="none" xmlns="http://www.w3.org/2000/svg">
<g clip-path="url(#clip0_167_26783)">
<g opacity="0.2">
<path d="M0.722046 233.4H1176.72" stroke="#E0E0E0"/>
<path d="M0.722046 263.126H1176.72" stroke="#E0E0E0"/>
<path d="M0.722046 292.862H1176.72" stroke="#E0E0E0"/>
<path d="M0.722046 322.588H1176.72" stroke="#E0E0E0"/>
<path d="M0.722046 352.315H1176.72" stroke="#E0E0E0"/>
<path d="M0.722046 382.05H1176.72" stroke="#E0E0E0"/>
<path d="M0.722046 411.777H1176.72" stroke="#E0E0E0"/>
<path d="M0.722046 441.512H1176.72" stroke="#E0E0E0"/>
<path d="M0.722046 471.239H1176.72" stroke="#E0E0E0"/>
<path d="M0.722046 500.965H1176.72" stroke="#E0E0E0"/>
<path d="M0.722046 530.701H1176.72" stroke="#E0E0E0"/>
<path d="M0.722046 560.427H1176.72" stroke="#E0E0E0"/>
<path d="M0.722046 590.162H1176.72" stroke="#E0E0E0"/>
<path d="M0.722046 619.889H1176.72" stroke="#E0E0E0"/>
<path d="M0.722046 649.615H1176.72" stroke="#E0E0E0"/>
<path d="M0.722046 679.351H1176.72" stroke="#E0E0E0"/>
<path d="M0.722046 709.077H1176.72" stroke="#E0E0E0"/>
<path d="M0.722046 738.813H1176.72" stroke="#E0E0E0"/>
<path d="M0.722046 768.539H1176.72" stroke="#E0E0E0"/>
<path d="M0.722046 798.265H1176.72" stroke="#E0E0E0"/>
<path d="M0.722046 828.001H1176.72" stroke="#E0E0E0"/>
<path d="M0.722046 857.727H1176.72" stroke="#E0E0E0"/>
<path d="M97.222 208.313V882.815" stroke="#E0E0E0"/>
<path d="M220.222 208.313V882.815" stroke="#E0E0E0"/>
<path d="M343.222 208.313V882.815" stroke="#E0E0E0"/>
<path d="M466.222 208.313V882.815" stroke="#E0E0E0"/>
<path d="M589.222 208.313V882.815" stroke="#E0E0E0"/>
<path d="M712.222 208.313V882.815" stroke="#E0E0E0"/>
<path d="M835.222 208.313V882.815" stroke="#E0E0E0"/>
<path d="M958.222 208.313V882.815" stroke="#E0E0E0"/>
<path d="M1081.22 208.313V882.815" stroke="#E0E0E0"/>
</g>
</g>
<defs>
<clipPath id="clip0_167_26783">
<rect width="1176" height="955.815" fill="white" transform="translate(0.722046 -73)"/>
</clipPath>
</defs>
</svg>
