<svg width="633" height="729" viewBox="0 0 633 729" fill="none" xmlns="http://www.w3.org/2000/svg">
<g opacity="0.3" clip-path="url(#clip0_54_3222)">
<path d="M-545.897 28.04H635.277" stroke="#E0E0E0" stroke-width="1.0022"/>
<path d="M-545.897 60.0801H635.277" stroke="#E0E0E0" stroke-width="1.0022"/>
<path d="M-545.897 92.1299H635.277" stroke="#E0E0E0" stroke-width="1.0022"/>
<path d="M-545.897 124.17H635.277" stroke="#E0E0E0" stroke-width="1.0022"/>
<path d="M-545.897 156.21H635.277" stroke="#E0E0E0" stroke-width="1.0022"/>
<path d="M-545.897 188.26H635.277" stroke="#E0E0E0" stroke-width="1.0022"/>
<path d="M-545.897 220.3H635.277" stroke="#E0E0E0" stroke-width="1.0022"/>
<path d="M-545.897 252.35H635.277" stroke="#E0E0E0" stroke-width="1.0022"/>
<path d="M-545.897 284.39H635.277" stroke="#E0E0E0" stroke-width="1.0022"/>
<path d="M-545.897 316.43H635.277" stroke="#E0E0E0" stroke-width="1.0022"/>
<path d="M-545.897 348.48H635.277" stroke="#E0E0E0" stroke-width="1.0022"/>
<path d="M-545.897 380.52H635.277" stroke="#E0E0E0" stroke-width="1.0022"/>
<path d="M-545.897 412.57H635.277" stroke="#E0E0E0" stroke-width="1.0022"/>
<path d="M-545.897 444.61H635.277" stroke="#E0E0E0" stroke-width="1.0022"/>
<path d="M-545.897 476.65H635.277" stroke="#E0E0E0" stroke-width="1.0022"/>
<path d="M-545.897 508.7H635.277" stroke="#E0E0E0" stroke-width="1.0022"/>
<path d="M-545.897 540.74H635.277" stroke="#E0E0E0" stroke-width="1.0022"/>
<path d="M-545.897 572.79H635.277" stroke="#E0E0E0" stroke-width="1.0022"/>
<path d="M-545.897 604.83H635.277" stroke="#E0E0E0" stroke-width="1.0022"/>
<path d="M-545.897 636.87H635.277" stroke="#E0E0E0" stroke-width="1.0022"/>
<path d="M-545.897 668.92H635.277" stroke="#E0E0E0" stroke-width="1.0022"/>
<path d="M-545.897 700.96H635.277" stroke="#E0E0E0" stroke-width="1.0022"/>
<path d="M45.1922 1V728" stroke="#E0E0E0" stroke-width="1.0022"/>
<path d="M168.343 1V728" stroke="#E0E0E0" stroke-width="1.0022"/>
<path d="M291.475 1V728" stroke="#E0E0E0" stroke-width="1.0022"/>
<path d="M414.625 1V728" stroke="#E0E0E0" stroke-width="1.0022"/>
<path d="M537.776 1V728" stroke="#E0E0E0" stroke-width="1.0022"/>
</g>
<defs>
<clipPath id="clip0_54_3222">
<rect width="633" height="728" fill="white" transform="translate(0 0.5)"/>
</clipPath>
</defs>
</svg>
