<svg width="40" height="40" viewBox="0 0 40 40" fill="none" xmlns="http://www.w3.org/2000/svg">
<path d="M20 15.0071C17.2357 15.0071 15.0071 17.2571 15.0071 20C15.0071 22.7429 17.2571 24.9929 20 24.9929C22.7429 24.9929 24.9929 22.7429 24.9929 20C24.9929 17.2571 22.7429 15.0071 20 15.0071ZM35 20C35 17.9214 35 15.8857 34.8929 13.8071C34.7857 11.4071 34.2286 9.26429 32.4714 7.52857C30.7143 5.77143 28.5929 5.21429 26.1929 5.10714C24.1143 5 22.0786 5 20 5C17.9214 5 15.8857 5 13.8071 5.10714C11.4071 5.21429 9.26429 5.77143 7.52857 7.52857C5.77143 9.28571 5.21429 11.4071 5.10714 13.8071C5 15.8857 5 17.9214 5 20C5 22.0786 5 24.1143 5.10714 26.1929C5.21429 28.5929 5.77143 30.7357 7.52857 32.4714C9.28571 34.2286 11.4071 34.7857 13.8071 34.8929C15.8857 35 17.9214 35 20 35C22.0786 35 24.1143 35 26.1929 34.8929C28.5929 34.7857 30.7357 34.2286 32.4714 32.4714C34.2286 30.7143 34.7857 28.5929 34.8929 26.1929C35.0214 24.1357 35 22.0786 35 20ZM20 27.6929C15.7357 27.6929 12.3071 24.2643 12.3071 20C12.3071 15.7357 15.7357 12.3071 20 12.3071C24.2643 12.3071 27.6929 15.7357 27.6929 20C27.6929 24.2643 24.2643 27.6929 20 27.6929ZM28.0143 13.7857C27.0286 13.7857 26.2143 12.9929 26.2143 11.9857C26.2143 10.9786 27.0071 10.1857 28.0143 10.1857C29.0214 10.1857 29.8143 10.9786 29.8143 11.9857C29.8197 12.2204 29.7769 12.4538 29.6884 12.6712C29.5999 12.8887 29.4677 13.0857 29.3 13.25C29.1357 13.4177 28.9387 13.5499 28.7212 13.6384C28.5038 13.7269 28.2704 13.7697 28.0357 13.7643L28.0143 13.7857Z" fill="white"/>
</svg>
