<svg width="143" height="92" viewBox="0 0 143 92" fill="none" xmlns="http://www.w3.org/2000/svg">
<g opacity="0.5">
<rect width="142.597" height="91.9525" rx="3.66102" fill="#0D134F"/>
<path d="M115.261 78.2237H101.685C101.348 78.2237 101.075 77.9505 101.075 77.6136V66.0933C101.075 65.7563 100.801 65.4831 100.464 65.4831H85.2712C84.9343 65.4831 84.6611 65.21 84.6611 64.873V52.9627C84.6611 52.6257 84.3879 52.3525 84.0509 52.3525H46.8" stroke="white" stroke-width="0.61017"/>
<path fill-rule="evenodd" clip-rule="evenodd" d="M62.1763 34.2305C61.529 34.2305 60.9082 34.4876 60.4505 34.9453C59.9927 35.403 59.7356 36.0238 59.7356 36.6711V37.4847H57.2949C56.6476 37.4847 56.0268 37.7418 55.5691 38.1996C55.1114 38.6573 54.8542 39.2781 54.8542 39.9254V46.4339C54.8542 47.0812 55.1114 47.702 55.5691 48.1597C56.0268 48.6174 56.6476 48.8745 57.2949 48.8745H68.6848C69.3321 48.8745 69.9529 48.6174 70.4106 48.1597C70.8683 47.702 71.1254 47.0812 71.1254 46.4339V39.9254C71.1254 39.2781 70.8683 38.6573 70.4106 38.1996C69.9529 37.7418 69.3321 37.4847 68.6848 37.4847H66.2441V36.6711C66.2441 36.0238 65.9869 35.403 65.5292 34.9453C65.0715 34.4876 64.4507 34.2305 63.8034 34.2305H62.1763ZM64.617 37.4847H61.3627V36.6711C61.3627 36.4554 61.4484 36.2484 61.601 36.0959C61.7536 35.9433 61.9605 35.8576 62.1763 35.8576H63.8034C64.0192 35.8576 64.2261 35.9433 64.3787 36.0959C64.5312 36.2484 64.617 36.4554 64.617 36.6711V37.4847Z" fill="white"/>
<path d="M109.838 69.7228C110.299 71.1675 111.844 71.9649 113.289 71.504C114.734 71.043 115.531 69.4981 115.07 68.0535L109.838 69.7228ZM103.005 48.3059L109.838 69.7228L115.07 68.0535L108.236 46.6365L103.005 48.3059Z" fill="white"/>
<path d="M109.563 26.6417L108.015 25.1706L105.072 28.2668L106.62 29.7379L109.563 26.6417ZM111.356 41.3085C111.356 42.4879 112.312 43.4441 113.492 43.4441C114.671 43.4441 115.627 42.4879 115.627 41.3085H111.356ZM106.62 29.7379L111.831 34.689L114.773 31.5928L109.563 26.6417L106.62 29.7379ZM111.356 33.5832V41.3085H115.627V33.5832H111.356ZM111.831 34.689C111.528 34.401 111.356 34.0013 111.356 33.5832H115.627C115.627 32.8307 115.318 32.1112 114.773 31.5928L111.831 34.689Z" fill="white"/>
<path d="M101.715 42.4068V27.4576H106.475V42.4068H101.715Z" stroke="white" stroke-width="5.49153" stroke-linejoin="round"/>
<path d="M92.6848 60.0102L94.3159 47.6439C94.3448 47.4243 94.4905 47.2377 94.6965 47.1562L106.17 42.6204" stroke="white" stroke-width="5.49153" stroke-linecap="round" stroke-linejoin="round"/>
<path d="M91.3813 36.7109C90.2911 37.1611 89.7724 38.4098 90.2227 39.5C90.6729 40.5901 91.9217 41.1088 93.0118 40.6586L91.3813 36.7109ZM96.812 36.7784L95.9968 34.8045L96.812 36.7784ZM98.1762 34.5966H97.045V38.8678H98.1762V34.5966ZM95.9968 34.8045L91.3813 36.7109L93.0118 40.6586L97.6273 38.7522L95.9968 34.8045ZM97.045 34.5966C96.6853 34.5966 96.3292 34.6672 95.9968 34.8045L97.6273 38.7522C97.4426 38.8285 97.2448 38.8678 97.045 38.8678V34.5966Z" fill="white"/>
<circle cx="104.034" cy="18.6712" r="5.00339" fill="white"/>
<path d="M33.2819 76.4L35.8386 67.3695H37.004L39.5423 76.4H38.7552L36.4121 67.8882H36.4243L34.0691 76.4H33.2819ZM34.4535 73.8922V73.2271H38.3891V73.8922H34.4535ZM43.4417 76.5099C42.978 76.5099 42.5936 76.4285 42.2885 76.2658C41.9875 76.1031 41.7516 75.8936 41.5807 75.6373C41.4099 75.377 41.2899 75.0983 41.2207 74.8014C41.1556 74.5044 41.1231 74.2258 41.1231 73.9654C41.1231 73.8109 41.1231 73.6502 41.1231 73.4834C41.1231 73.3166 41.1231 73.1499 41.1231 72.9831V69.92H41.8858V72.9099C41.8858 73.0644 41.8858 73.217 41.8858 73.3675C41.8858 73.518 41.8858 73.6624 41.8858 73.8007C41.8858 74.1465 41.9367 74.4739 42.0383 74.7831C42.14 75.0882 42.315 75.3363 42.5631 75.5275C42.8112 75.7187 43.1489 75.8143 43.576 75.8143C43.9787 75.8143 44.3326 75.7044 44.6377 75.4848C44.9428 75.2651 45.1807 74.9865 45.3516 74.6488C45.5265 74.3071 45.6139 73.9573 45.6139 73.5993L46.0777 73.7885C46.0777 74.1139 46.0167 74.4373 45.8946 74.7587C45.7767 75.076 45.6038 75.3688 45.376 75.6373C45.1522 75.9017 44.8756 76.1132 44.5461 76.2719C44.2207 76.4305 43.8526 76.5099 43.4417 76.5099ZM45.6139 76.4V69.92H46.3706V76.4H45.6139ZM50.6506 76.4977C50.4676 76.4977 50.2886 76.4753 50.1137 76.4305C49.9428 76.3858 49.7882 76.3065 49.6499 76.1926C49.5157 76.0746 49.4099 75.9139 49.3326 75.7105C49.2554 75.5071 49.2167 75.2488 49.2167 74.9356C49.2167 74.8502 49.2167 74.7627 49.2167 74.6732C49.2167 74.5797 49.2167 74.4821 49.2167 74.3804V70.5851H47.6547V69.92H48.7774C48.8831 69.92 48.9665 69.916 49.0276 69.9078C49.0886 69.8997 49.1313 69.8793 49.1557 69.8468C49.1842 69.8143 49.2004 69.7634 49.2045 69.6943C49.2126 69.6251 49.2167 69.5295 49.2167 69.4075V67.8271H49.9733V69.92H52.0479V70.5851H49.9733V74.1302C49.9733 74.2278 49.9733 74.3214 49.9733 74.4109C49.9733 74.5004 49.9733 74.5838 49.9733 74.661C49.9733 75.0271 50.0262 75.3139 50.132 75.5214C50.2418 75.7288 50.4472 75.8326 50.7482 75.8326C50.8621 75.8326 50.974 75.8224 51.0838 75.8021C51.1937 75.7817 51.277 75.7593 51.334 75.7349V76.3939C51.2648 76.4224 51.1693 76.4468 51.0472 76.4671C50.9252 76.4875 50.793 76.4977 50.6506 76.4977ZM56.2201 76.5099C55.5855 76.5099 55.0242 76.3654 54.5361 76.0766C54.0479 75.7838 53.6655 75.3831 53.3889 74.8746C53.1123 74.3661 52.974 73.7926 52.974 73.1539C52.974 72.5112 53.1123 71.9397 53.3889 71.4393C53.6655 70.939 54.0479 70.5465 54.5361 70.2617C55.0242 69.977 55.5855 69.8346 56.2201 69.8346C56.8547 69.8346 57.4161 69.977 57.9042 70.2617C58.3923 70.5465 58.7747 70.939 59.0513 71.4393C59.3279 71.9397 59.4662 72.5112 59.4662 73.1539C59.4662 73.7926 59.3279 74.3661 59.0513 74.8746C58.7747 75.3831 58.3923 75.7838 57.9042 76.0766C57.4161 76.3654 56.8547 76.5099 56.2201 76.5099ZM56.2201 75.8204C56.7083 75.8204 57.1374 75.7065 57.5076 75.4787C57.8818 75.2509 58.1747 74.9356 58.3862 74.5329C58.5977 74.1302 58.7035 73.6705 58.7035 73.1539C58.7035 72.6332 58.5977 72.1756 58.3862 71.781C58.1747 71.3865 57.8818 71.0793 57.5076 70.8597C57.1374 70.636 56.7083 70.5241 56.2201 70.5241C55.7361 70.5241 55.3069 70.636 54.9327 70.8597C54.5584 71.0793 54.2655 71.3865 54.054 71.781C53.8425 72.1756 53.7367 72.6332 53.7367 73.1539C53.7367 73.6705 53.8425 74.1302 54.054 74.5329C54.2655 74.9356 54.5584 75.2509 54.9327 75.4787C55.3069 75.7065 55.7361 75.8204 56.2201 75.8204ZM65.2176 76.4V73.4224C65.2176 73.1661 65.2176 72.9444 65.2176 72.7573C65.2176 72.5661 65.2176 72.4075 65.2176 72.2814C65.2176 72.1227 65.2054 71.9458 65.181 71.7505C65.1566 71.5512 65.0997 71.36 65.0102 71.177C64.9248 70.9939 64.7885 70.8434 64.6014 70.7254C64.4143 70.6034 64.1559 70.5424 63.8265 70.5424C63.4807 70.5424 63.1919 70.6115 62.96 70.7499C62.7281 70.8841 62.541 71.059 62.3987 71.2746C62.2604 71.4902 62.1607 71.72 62.0997 71.9641C62.0387 72.2082 62.0081 72.438 62.0081 72.6536L61.5566 72.4766C61.5566 72.0088 61.6543 71.5756 61.8495 71.177C62.0448 70.7743 62.3214 70.4488 62.6793 70.2007C63.0414 69.9526 63.4705 69.8285 63.9668 69.8285C64.4427 69.8285 64.8271 69.9241 65.12 70.1153C65.4129 70.3024 65.6265 70.5668 65.7607 70.9085C65.899 71.2461 65.9681 71.6427 65.9681 72.0983C65.9681 72.257 65.9681 72.4563 65.9681 72.6963C65.9681 72.9363 65.9681 73.2048 65.9681 73.5017V76.4H65.2176ZM61.2515 76.4V69.92H62.0081V76.4H61.2515ZM69.1715 76.4V73.4163C69.1715 73.1315 69.1715 72.8997 69.1715 72.7207C69.1715 72.5377 69.1715 72.381 69.1715 72.2509C69.1715 72.0963 69.1614 71.9234 69.141 71.7322C69.1207 71.537 69.0658 71.3499 68.9763 71.1709C68.8909 70.9919 68.7505 70.8434 68.5553 70.7254C68.3641 70.6034 68.0956 70.5424 67.7498 70.5424C67.4041 70.5424 67.1153 70.6095 66.8834 70.7438C66.6515 70.878 66.4685 71.0509 66.3343 71.2624C66.2 71.4699 66.1044 71.6895 66.0475 71.9214C65.9946 72.1492 65.9681 72.3566 65.9681 72.5438L65.5166 72.379C65.5166 71.9438 65.6102 71.5329 65.7973 71.1465C65.9885 70.756 66.261 70.4387 66.6149 70.1946C66.9688 69.9505 67.3959 69.8285 67.8963 69.8285C68.3437 69.8285 68.7159 69.9139 69.0129 70.0848C69.3139 70.2556 69.5397 70.4997 69.6902 70.817C69.8448 71.1343 69.922 71.5207 69.922 71.9763C69.922 72.139 69.922 72.3404 69.922 72.5804C69.922 72.8204 69.922 73.0848 69.922 73.3736V76.4H69.1715ZM74.1685 76.516C73.6723 76.516 73.2391 76.4407 72.8689 76.2902C72.4987 76.1397 72.2119 75.9221 72.0085 75.6373C71.8092 75.3485 71.7096 75.0007 71.7096 74.5939C71.7096 74.1831 71.8153 73.8414 72.0268 73.5688C72.2384 73.2922 72.5394 73.0766 72.9299 72.9221C73.3245 72.7675 73.7902 72.6638 74.3272 72.6109C75.153 72.5254 75.7448 72.44 76.1028 72.3546C76.4648 72.2651 76.6458 72.1227 76.6458 71.9275C76.6458 71.9153 76.6458 71.9031 76.6458 71.8909C76.6458 71.8746 76.6458 71.8583 76.6458 71.8421C76.6458 71.4231 76.475 71.0977 76.1333 70.8658C75.7916 70.6339 75.3055 70.518 74.675 70.518C74.016 70.518 73.5014 70.6482 73.1313 70.9085C72.7652 71.1688 72.5821 71.5553 72.5821 72.0678H71.8377C71.8377 71.6 71.9557 71.1993 72.1916 70.8658C72.4275 70.5282 72.7591 70.2719 73.1862 70.097C73.6133 69.918 74.1116 69.8285 74.6811 69.8285C75.1936 69.8285 75.6553 69.9078 76.0662 70.0665C76.477 70.2251 76.8024 70.457 77.0424 70.7621C77.2865 71.0631 77.4085 71.4353 77.4085 71.8787C77.4085 71.9641 77.4085 72.0495 77.4085 72.1349C77.4085 72.2163 77.4085 72.2997 77.4085 72.3851V75.2529C77.4085 75.3912 77.4146 75.5234 77.4268 75.6495C77.4391 75.7756 77.4574 75.8854 77.4818 75.979C77.5184 76.097 77.557 76.1905 77.5977 76.2597C77.6384 76.3288 77.6709 76.3756 77.6953 76.4H76.9326C76.9163 76.3838 76.8899 76.341 76.8533 76.2719C76.8167 76.1987 76.7801 76.1132 76.7435 76.0156C76.7109 75.9139 76.6885 75.8 76.6763 75.6739C76.6641 75.5478 76.658 75.3953 76.658 75.2163L76.7801 75.3078C76.6499 75.5478 76.4607 75.7593 76.2126 75.9424C75.9645 76.1214 75.6675 76.2617 75.3218 76.3634C74.976 76.4651 74.5916 76.516 74.1685 76.516ZM74.2845 75.8387C74.7238 75.8387 75.1204 75.7675 75.4743 75.6251C75.8323 75.4787 76.117 75.2712 76.3285 75.0027C76.5401 74.7302 76.6458 74.4007 76.6458 74.0143V72.501L76.8106 72.7817C76.5746 72.8997 76.2533 72.9953 75.8465 73.0685C75.4397 73.1377 74.9984 73.1946 74.5224 73.2393C73.8513 73.3044 73.3407 73.4326 72.9909 73.6238C72.6452 73.8149 72.4723 74.1261 72.4723 74.5573C72.4723 74.9722 72.6248 75.2895 72.9299 75.5092C73.235 75.7288 73.6865 75.8387 74.2845 75.8387ZM81.4451 76.4977C81.262 76.4977 81.0831 76.4753 80.9082 76.4305C80.7373 76.3858 80.5827 76.3065 80.4444 76.1926C80.3102 76.0746 80.2044 75.9139 80.1271 75.7105C80.0498 75.5071 80.0112 75.2488 80.0112 74.9356C80.0112 74.8502 80.0112 74.7627 80.0112 74.6732C80.0112 74.5797 80.0112 74.4821 80.0112 74.3804V70.5851H78.4492V69.92H79.5719C79.6776 69.92 79.761 69.916 79.822 69.9078C79.8831 69.8997 79.9258 69.8793 79.9502 69.8468C79.9787 69.8143 79.9949 69.7634 79.999 69.6943C80.0071 69.6251 80.0112 69.5295 80.0112 69.4075V67.8271H80.7678V69.92H82.8424V70.5851H80.7678V74.1302C80.7678 74.2278 80.7678 74.3214 80.7678 74.4109C80.7678 74.5004 80.7678 74.5838 80.7678 74.661C80.7678 75.0271 80.8207 75.3139 80.9265 75.5214C81.0363 75.7288 81.2417 75.8326 81.5427 75.8326C81.6566 75.8326 81.7685 75.8224 81.8783 75.8021C81.9882 75.7817 82.0715 75.7593 82.1285 75.7349V76.3939C82.0593 76.4224 81.9637 76.4468 81.8417 76.4671C81.7197 76.4875 81.5875 76.4977 81.4451 76.4977ZM87.0146 76.5099C86.38 76.5099 85.8187 76.3654 85.3305 76.0766C84.8424 75.7838 84.46 75.3831 84.1834 74.8746C83.9068 74.3661 83.7685 73.7926 83.7685 73.1539C83.7685 72.5112 83.9068 71.9397 84.1834 71.4393C84.46 70.939 84.8424 70.5465 85.3305 70.2617C85.8187 69.977 86.38 69.8346 87.0146 69.8346C87.6492 69.8346 88.2105 69.977 88.6987 70.2617C89.1868 70.5465 89.5692 70.939 89.8458 71.4393C90.1224 71.9397 90.2607 72.5112 90.2607 73.1539C90.2607 73.7926 90.1224 74.3661 89.8458 74.8746C89.5692 75.3831 89.1868 75.7838 88.6987 76.0766C88.2105 76.3654 87.6492 76.5099 87.0146 76.5099ZM87.0146 75.8204C87.5027 75.8204 87.9319 75.7065 88.3021 75.4787C88.6763 75.2509 88.9692 74.9356 89.1807 74.5329C89.3922 74.1302 89.498 73.6705 89.498 73.1539C89.498 72.6332 89.3922 72.1756 89.1807 71.781C88.9692 71.3865 88.6763 71.0793 88.3021 70.8597C87.9319 70.636 87.5027 70.5241 87.0146 70.5241C86.5305 70.5241 86.1014 70.636 85.7272 70.8597C85.3529 71.0793 85.06 71.3865 84.8485 71.781C84.637 72.1756 84.5312 72.6332 84.5312 73.1539C84.5312 73.6705 84.637 74.1302 84.8485 74.5329C85.06 74.9356 85.3529 75.2509 85.7272 75.4787C86.1014 75.7065 86.5305 75.8204 87.0146 75.8204ZM92.046 76.4V69.92H92.8026V71.8299L92.5342 71.7444C92.5586 71.541 92.6176 71.3295 92.7111 71.1099C92.8087 70.8861 92.943 70.6766 93.1138 70.4814C93.2847 70.2861 93.4982 70.1295 93.7545 70.0115C94.0148 69.8895 94.324 69.8285 94.682 69.8285C94.9423 69.8285 95.1518 69.8509 95.3104 69.8956C95.4691 69.9404 95.5687 69.9749 95.6094 69.9993L95.402 70.7315C95.3613 70.7031 95.2779 70.6665 95.1518 70.6217C95.0257 70.577 94.8447 70.5546 94.6087 70.5546C94.267 70.5546 93.9803 70.6217 93.7484 70.756C93.5165 70.8861 93.3315 71.057 93.1932 71.2685C93.0548 71.48 92.9552 71.7058 92.8942 71.9458C92.8332 72.1817 92.8026 72.4095 92.8026 72.6292V76.4H92.046Z" fill="white"/>
<path d="M28.1955 63.2374C27.4961 63.2374 26.9357 63.1157 26.5145 62.8722C26.0972 62.6249 25.7938 62.2809 25.6044 61.8404C25.4189 61.3999 25.3262 60.8917 25.3262 60.3159C25.3262 60.2463 25.3262 60.1787 25.3262 60.113C25.3262 60.0473 25.3262 59.9816 25.3262 59.9159H27.1116C27.1116 59.9468 27.1116 59.9836 27.1116 60.0261C27.1116 60.0686 27.1116 60.1111 27.1116 60.1536C27.1116 60.4357 27.1405 60.7023 27.1985 60.9535C27.2603 61.2047 27.3705 61.4076 27.5289 61.5622C27.6874 61.7167 27.9096 61.794 28.1955 61.794C28.4892 61.794 28.7114 61.7148 28.8621 61.5564C29.0128 61.3979 29.1153 61.1854 29.1694 60.9187C29.2235 60.6521 29.2505 60.3565 29.2505 60.0319V54.5483H31.0475V60.2869C31.0475 60.6888 31.0011 61.0675 30.9083 61.423C30.8195 61.7786 30.6668 62.0935 30.4504 62.3679C30.2379 62.6384 29.948 62.8509 29.5809 63.0055C29.2138 63.1601 28.752 63.2374 28.1955 63.2374ZM35.5399 63.2316C34.8752 63.2316 34.2898 63.0944 33.7835 62.82C33.2773 62.5457 32.8812 62.1689 32.5952 61.6897C32.3131 61.2066 32.1721 60.6502 32.1721 60.0203C32.1721 59.3942 32.3131 58.8416 32.5952 58.3624C32.8812 57.8794 33.2773 57.5045 33.7835 57.2379C34.2898 56.9674 34.8752 56.8321 35.5399 56.8321C36.2046 56.8321 36.7901 56.9674 37.2963 57.2379C37.8025 57.5045 38.1967 57.8794 38.4788 58.3624C38.7648 58.8416 38.9078 59.3942 38.9078 60.0203C38.9078 60.6502 38.7648 61.2066 38.4788 61.6897C38.1967 62.1689 37.8025 62.5457 37.2963 62.82C36.7901 63.0944 36.2046 63.2316 35.5399 63.2316ZM35.5399 61.8056C35.8529 61.8056 36.1254 61.7322 36.3572 61.5854C36.5891 61.4385 36.7688 61.2318 36.8963 60.9651C37.0239 60.6946 37.0876 60.3797 37.0876 60.0203C37.0876 59.6609 37.0239 59.3498 36.8963 59.087C36.7688 58.8204 36.5891 58.6156 36.3572 58.4726C36.1254 58.3296 35.8529 58.2581 35.5399 58.2581C35.2308 58.2581 34.9583 58.3296 34.7226 58.4726C34.4907 58.6156 34.311 58.8204 34.1835 59.087C34.056 59.3498 33.9922 59.6609 33.9922 60.0203C33.9922 60.3797 34.056 60.6946 34.1835 60.9651C34.311 61.2318 34.4907 61.4385 34.7226 61.5854C34.9583 61.7322 35.2308 61.8056 35.5399 61.8056ZM43.7342 63.2316C43.2473 63.2316 42.801 63.1021 42.3952 62.8432C41.9895 62.5843 41.6649 62.2346 41.4214 61.794C41.1779 61.3496 41.0562 60.8511 41.0562 60.2985C41.0562 60.283 41.0562 60.2695 41.0562 60.2579C41.0562 60.2425 41.0562 60.2251 41.0562 60.2058L41.833 60.1884C41.833 60.2 41.833 60.2116 41.833 60.2231C41.833 60.2347 41.833 60.2463 41.833 60.2579C41.833 60.5439 41.9025 60.7951 42.0416 61.0115C42.1808 61.224 42.3604 61.3883 42.5807 61.5042C42.801 61.6201 43.0309 61.6781 43.2705 61.6781C43.6647 61.6781 44.0067 61.5428 44.2965 61.2723C44.5902 60.998 44.7371 60.5709 44.7371 59.9913C44.7371 59.4116 44.5921 58.9904 44.3023 58.7276C44.0125 58.461 43.6686 58.3277 43.2705 58.3277C43.0309 58.3277 42.801 58.3856 42.5807 58.5016C42.3604 58.6136 42.1808 58.774 42.0416 58.9827C41.9025 59.1914 41.833 59.4406 41.833 59.7304L41.0562 59.6841C41.0562 59.1276 41.1779 58.6368 41.4214 58.2117C41.6649 57.7828 41.9895 57.4466 42.3952 57.2031C42.801 56.9558 43.2473 56.8321 43.7342 56.8321C44.2328 56.8321 44.6984 56.9539 45.1312 57.1973C45.564 57.4408 45.9138 57.7982 46.1804 58.2697C46.4509 58.7411 46.5862 59.315 46.5862 59.9913C46.5862 60.6985 46.4548 61.2936 46.192 61.7766C45.9292 62.2558 45.5814 62.6191 45.1486 62.8664C44.7158 63.1099 44.2443 63.2316 43.7342 63.2316ZM40.0302 63.0983V54.0382H41.833V63.0983H40.0302ZM48.6974 55.9395L49.5089 55.0816V58.6812L48.9525 58.2291H52.4478V59.6203H48.9525L49.5089 59.1334V63.0983H47.712V54.5483H52.9637V55.9395H48.6974ZM56.813 63.2316C56.1484 63.2316 55.5629 63.0944 55.0567 62.82C54.5504 62.5457 54.1543 62.1689 53.8684 61.6897C53.5862 61.2066 53.4452 60.6502 53.4452 60.0203C53.4452 59.3942 53.5862 58.8416 53.8684 58.3624C54.1543 57.8794 54.5504 57.5045 55.0567 57.2379C55.5629 56.9674 56.1484 56.8321 56.813 56.8321C57.4777 56.8321 58.0632 56.9674 58.5694 57.2379C59.0756 57.5045 59.4698 57.8794 59.7519 58.3624C60.0379 58.8416 60.1809 59.3942 60.1809 60.0203C60.1809 60.6502 60.0379 61.2066 59.7519 61.6897C59.4698 62.1689 59.0756 62.5457 58.5694 62.82C58.0632 63.0944 57.4777 63.2316 56.813 63.2316ZM56.813 61.8056C57.126 61.8056 57.3985 61.7322 57.6304 61.5854C57.8622 61.4385 58.0419 61.2318 58.1694 60.9651C58.297 60.6946 58.3607 60.3797 58.3607 60.0203C58.3607 59.6609 58.297 59.3498 58.1694 59.087C58.0419 58.8204 57.8622 58.6156 57.6304 58.4726C57.3985 58.3296 57.126 58.2581 56.813 58.2581C56.5039 58.2581 56.2314 58.3296 55.9957 58.4726C55.7638 58.6156 55.5841 58.8204 55.4566 59.087C55.3291 59.3498 55.2653 59.6609 55.2653 60.0203C55.2653 60.3797 55.3291 60.6946 55.4566 60.9651C55.5841 61.2318 55.7638 61.4385 55.9957 61.5854C56.2314 61.7322 56.5039 61.8056 56.813 61.8056ZM61.3033 63.0983V56.9423H63.1061V59.0638L62.7351 58.832C62.7776 58.5421 62.8549 58.2755 62.9669 58.032C63.079 57.7886 63.2239 57.578 63.4017 57.4002C63.5795 57.2186 63.7901 57.0775 64.0335 56.977C64.2808 56.8766 64.5629 56.8263 64.8798 56.8263C65.1271 56.8263 65.3204 56.8457 65.4595 56.8843C65.6025 56.9191 65.6914 56.9461 65.7261 56.9655L65.4305 58.5769C65.3957 58.5576 65.3184 58.5267 65.1986 58.4842C65.0788 58.4417 64.9243 58.4204 64.7349 58.4204C64.4258 58.4204 64.1668 58.4726 63.9582 58.5769C63.7495 58.6812 63.5814 58.8204 63.4539 58.9943C63.3302 59.1643 63.2413 59.3537 63.1872 59.5623C63.1331 59.771 63.1061 59.9816 63.1061 60.1942V63.0983H61.3033ZM70.4789 63.0983V60.7159C70.4789 60.4879 70.4789 60.2908 70.4789 60.1246C70.4789 59.9546 70.4789 59.8135 70.4789 59.7015C70.4789 59.543 70.4692 59.3865 70.4499 59.2319C70.4345 59.0774 70.3958 58.9344 70.334 58.803C70.276 58.6677 70.1852 58.5615 70.0615 58.4842C69.9379 58.403 69.7698 58.3624 69.5572 58.3624C69.3602 58.3624 69.1901 58.4049 69.0471 58.49C68.9042 58.5711 68.7863 58.6851 68.6935 58.832C68.6047 58.9749 68.539 59.1411 68.4965 59.3305C68.454 59.516 68.4327 59.7111 68.4327 59.9159L67.94 59.5102C67.94 58.9885 68.0347 58.5267 68.224 58.1248C68.4134 57.719 68.682 57.4021 69.0297 57.1741C69.3814 56.9423 69.7968 56.8263 70.276 56.8263C70.79 56.8263 71.19 56.9365 71.4759 57.1567C71.7657 57.3731 71.9686 57.663 72.0846 58.0262C72.2044 58.3856 72.2643 58.7837 72.2643 59.2203C72.2643 59.3865 72.2643 59.6106 72.2643 59.8927C72.2643 60.1748 72.2643 60.513 72.2643 60.9071V63.0983H70.4789ZM66.6357 63.0983V56.9423H68.4327V63.0983H66.6357ZM74.3047 63.0983V60.7217C74.3047 60.4859 74.3047 60.283 74.3047 60.113C74.3047 59.943 74.3047 59.8019 74.3047 59.6899C74.3047 59.5198 74.295 59.3575 74.2757 59.2029C74.2564 59.0445 74.2158 58.9015 74.154 58.774C74.0921 58.6465 73.9994 58.546 73.8757 58.4726C73.7521 58.3991 73.584 58.3624 73.3714 58.3624C73.1743 58.3624 73.0043 58.4049 72.8613 58.49C72.7222 58.5711 72.6082 58.6832 72.5193 58.8262C72.4304 58.9691 72.3647 59.1315 72.3222 59.3131C72.2836 59.4947 72.2643 59.6841 72.2643 59.8811L71.7715 59.4812C71.7715 58.9672 71.8643 58.5112 72.0498 58.1132C72.2391 57.7151 72.5058 57.4021 72.8497 57.1741C73.1975 56.9423 73.6129 56.8263 74.096 56.8263C74.5984 56.8263 74.9945 56.9326 75.2843 57.1451C75.578 57.3577 75.7867 57.6417 75.9103 57.9972C76.0378 58.3489 76.1016 58.7431 76.1016 59.1798C76.1016 59.3537 76.1016 59.5778 76.1016 59.8522C76.1016 60.1265 76.1016 60.4608 76.1016 60.855V63.0983H74.3047Z" fill="white"/>
</g>
</svg>
