<svg width="32" height="24" viewBox="0 0 32 24" fill="none" xmlns="http://www.w3.org/2000/svg">
<path d="M31.7 5.60001C31.7 5.60001 31.4 3.40001 30.4 2.40001C29.2 1.10001 27.8 1.10001 27.2 1.00001C22.7 0.700012 16 0.700012 16 0.700012C16 0.700012 9.3 0.700012 4.8 1.00001C4.2 1.10001 2.8 1.10001 1.6 2.40001C0.6 3.40001 0.3 5.60001 0.3 5.60001C0.3 5.60001 0 8.20001 0 10.8L0 13.2C0 15.8 0.3 18.4 0.3 18.4C0.3 18.4 0.6 20.6 1.6 21.6C2.8 22.9 4.4 22.8 5.1 23C7.7 23.2 16 23.3 16 23.3C16 23.3 22.7 23.3 27.2 23C27.8 22.9 29.2 22.9 30.4 21.6C31.4 20.6 31.7 18.4 31.7 18.4C31.7 18.4 32 15.8 32 13.2V10.8C32 8.20001 31.7 5.60001 31.7 5.60001ZM12.7 16.2L12.7 7.20001L21.3 11.7L12.7 16.2Z" fill="white"/>
</svg>
